<?xml version="1.0" encoding="UTF-8" standalone="no"?>
<!-- Created with Inkscape (http://www.inkscape.org/) -->

<svg
   version="1.1"
   id="svg1"
   width="3.625in"
   height="2.3242302in"
   viewBox="0 0 348 223.1261"
   sodipodi:docname="sselbanner_logo_cropped.svg"
   inkscape:version="1.3.2 (091e20e, 2023-11-25, custom)"
   xmlns:inkscape="http://www.inkscape.org/namespaces/inkscape"
   xmlns:sodipodi="http://sodipodi.sourceforge.net/DTD/sodipodi-0.dtd"
   xmlns="http://www.w3.org/2000/svg"
   xmlns:svg="http://www.w3.org/2000/svg">
  <defs
     id="defs1">
    <clipPath
       clipPathUnits="userSpaceOnUse"
       id="clipPath2">
      <path
         d="M 0,398.16 H 621 V 0 H 0 Z"
         transform="translate(-361.33401,-186.6592)"
         id="path2" />
    </clipPath>
    <clipPath
       clipPathUnits="userSpaceOnUse"
       id="clipPath4">
      <path
         d="M 0,398.16 H 621 V 0 H 0 Z"
         transform="translate(-430.23241,-192.7129)"
         id="path4" />
    </clipPath>
    <clipPath
       clipPathUnits="userSpaceOnUse"
       id="clipPath6">
      <path
         d="M 0,398.16 H 621 V 0 H 0 Z"
         transform="translate(-185.8257,-176.6367)"
         id="path6" />
    </clipPath>
    <clipPath
       clipPathUnits="userSpaceOnUse"
       id="clipPath8">
      <path
         d="M 0,398.16 H 621 V 0 H 0 Z"
         transform="translate(-249.0244,-176.0713)"
         id="path8" />
    </clipPath>
    <clipPath
       clipPathUnits="userSpaceOnUse"
       id="clipPath10">
      <path
         d="M 0,398.16 H 621 V 0 H 0 Z"
         transform="translate(-192.27441,-177.582)"
         id="path10" />
    </clipPath>
    <clipPath
       clipPathUnits="userSpaceOnUse"
       id="clipPath12">
      <path
         d="M 0,398.16 H 621 V 0 H 0 Z"
         transform="matrix(1,0,0,-1,-238.50001,224.96041)"
         id="path12" />
    </clipPath>
  </defs>
  <sodipodi:namedview
     id="namedview1"
     pagecolor="#505050"
     bordercolor="#eeeeee"
     borderopacity="1"
     inkscape:showpageshadow="0"
     inkscape:pageopacity="0"
     inkscape:pagecheckerboard="0"
     inkscape:deskcolor="#505050"
     inkscape:export-bgcolor="#ffffff00"
     showborder="true"
     inkscape:document-units="in"
     inkscape:zoom="2.8284271"
     inkscape:cx="188.79751"
     inkscape:cy="101.29305"
     inkscape:window-width="1920"
     inkscape:window-height="1009"
     inkscape:window-x="1072"
     inkscape:window-y="433"
     inkscape:window-maximized="1"
     inkscape:current-layer="layer-MC1">
    <inkscape:page
       x="0"
       y="0"
       inkscape:label="1"
       id="page1"
       width="348"
       height="223.1261"
       margin="199.228 251.65733 211.776 247.42134"
       bleed="0"
       inkscape:export-filename="..\Users\SSEL\Desktop\sselbanner_logo_jd_cropped.svg"
       inkscape:export-xdpi="1000"
       inkscape:export-ydpi="1000" />
  </sodipodi:namedview>
  <g
     id="layer-MC0"
     inkscape:groupmode="layer"
     inkscape:label="Background"
     style="display:none"
     transform="translate(237.70333,186.85601)" />
  <g
     id="layer-MC1"
     inkscape:groupmode="layer"
     inkscape:label="EL"
     transform="translate(237.70333,186.85601)">
    <path
       id="path1"
       d="M 0,0 H 2.51 L 2.173,-10.469 h -58.707 v 1.491 h 1.464 c 3.522,0 5.797,0.292 6.826,0.876 1.028,0.584 1.68,1.325 1.961,2.222 0.278,0.898 0.419,3.184 0.419,6.859 v 21.567 c 0,3.351 -0.15,5.557 -0.446,6.616 -0.296,1.06 -0.975,1.8 -2.04,2.222 -1.062,0.422 -4.441,0.633 -7.859,0.633 v 1.491 H -3 l 0.282,-10.962 h -2.405 c -1.117,3.07 -2.484,5.248 -4.106,6.535 -1.621,1.287 -3.549,2.098 -5.779,2.432 -2.231,0.336 -5.824,0.504 -10.774,0.504 h -9.831 V 13.563 h 7.552 c 3.463,0 5.114,0.564 6.494,0.932 1.381,0.367 2.464,1.425 2.9,2.172 0.44,0.746 1.261,2.003 1.261,4.166 H -15 L -15.167,4 h -2 c 0,2.443 -1.26,4.713 -1.924,5.546 -0.664,0.833 -1.634,1.373 -2.909,1.621 -1.277,0.249 -2.757,0.5 -5.799,0.5 h -7.814 V 1.596 c 0,-5.211 0.538,-8.277 1.619,-9.195 1.078,-0.919 3.984,-1.379 8.72,-1.379 h 5.275 c 3.726,0 6.789,0.295 9.193,0.885 2.402,0.588 4.463,0.911 6.639,2.76 C -1.992,-3.484 -1.255,-3.253 0,0"
       style="fill:#000000;fill-opacity:1;fill-rule:nonzero;stroke:none"
       transform="matrix(1.3333333,0,0,-1.3333333,6.6533291,-59.933629)"
       clip-path="url(#clipPath2)" />
    <path
       id="path3"
       d="M 0,0 -0.496,-17.022 H -60.82 l 0.931,0.844 h 2.032 c 2.943,0 4.048,1.431 5.182,2.057 1.135,0.625 1.862,1.599 2.185,2.922 0.321,1.321 0.482,4.4 0.482,9.236 v 28.369 c 0,4.608 -0.161,7.579 -0.482,8.916 -0.323,1.336 -0.998,2.261 -2.031,2.774 -1.034,0.511 -3.291,0.767 -6.776,0.767 h -0.639 v 1.962 h 29.894 v -1.962 h -0.728 c -3.385,0 -5.601,-0.234 -6.65,-0.705 -1.05,-0.468 -1.751,-1.344 -2.105,-2.623 -0.358,-1.279 -0.534,-4.323 -0.534,-9.129 V -3.883 c 0,-4.18 0.135,-6.797 0.404,-7.849 0.272,-1.054 1.007,-1.872 2.206,-2.454 1.199,-0.583 3.775,-0.875 7.73,-0.875 h 7.109 c 4.223,0 7.357,0.314 9.403,0.937 2.044,0.624 3.987,1.985 5.828,4.084 1.842,2.1 3.523,5.445 5.044,10.04 z"
       style="fill:#000000;fill-opacity:1;fill-rule:nonzero;stroke:none"
       transform="matrix(1.3333333,0,0,-1.3333333,98.517859,-68.005229)"
       clip-path="url(#clipPath4)" />
  </g>
  <g
     id="layer-MC2"
     inkscape:groupmode="layer"
     inkscape:label="Swoosh"
     transform="translate(237.70333,186.85601)">
    <path
       id="path5"
       d="m 0,0 c 0,0 112.096,64.406 197.138,59.268 36.265,0.048 37.402,-11.94 37.092,-17.52 1.55,-20.565 -69.285,-67.954 -193.893,-67.697 0,0 100.337,-10.278 183.956,44.448 14.388,10.278 24.151,18.756 21.069,29.803 C 240.48,61.406 211.191,61.919 197.317,62.176 183.443,62.433 99.173,60.119 0,0"
       style="fill:#fdff3f;fill-opacity:1;fill-rule:nonzero;stroke:#000000;stroke-width:1;stroke-linecap:butt;stroke-linejoin:miter;stroke-miterlimit:4;stroke-dasharray:none;stroke-opacity:1"
       transform="matrix(1.3333333,0,0,-1.3333333,-227.35774,-46.570299)"
       clip-path="url(#clipPath6)" />
  </g>
  <g
     id="layer-MC3"
     inkscape:groupmode="layer"
     inkscape:label="SS"
     transform="translate(237.70333,186.85601)">
    <path
       id="path7"
       d="m 0,0 0.085,14.354 2.233,0.013 C 5.431,4.838 10.829,0.589 22.476,0.589 c 5.237,0 9.294,0.912 12.169,2.734 2.875,1.822 4.313,3.863 4.313,6.121 0,2.281 -1.265,4.193 -3.792,5.737 -2.527,1.519 -4.394,2.554 -11.095,4.296 -5.97,1.562 -10.474,2.929 -13.515,4.1 C 7.517,24.749 5.509,26 3.98,28.02 c -1.395,1.843 -1.709,3.971 -1.709,6.091 0,3.236 1.839,5.93 5.521,8.085 3.68,2.153 8.341,3.23 13.98,3.23 3.151,0 6.118,-0.313 8.901,-0.938 2.782,-0.624 4.995,-1.562 7.928,-3.524 1.682,1.226 2.529,2.081 2.75,3.508 h 2.418 V 32.589 h -2.418 c -1.393,3.447 -3.104,6.279 -6.639,8.26 -3.536,1.981 -7.63,2.97 -12.28,2.97 -4.431,0 -7.683,-0.73 -9.751,-2.192 -2.071,-1.46 -3.104,-3.061 -3.104,-4.801 0,-2.097 1.297,-3.869 3.891,-5.32 2.556,-1.47 5.806,-3.09 12.515,-4.911 6.416,-1.734 11.081,-3.13 13.993,-4.189 2.911,-1.06 4.48,-2.449 6.239,-4.323 1.758,-1.875 2.636,-4.04 2.636,-6.494 0,-3.884 -2.124,-7.041 -6.373,-9.475 -4.249,-2.432 -9.925,-3.648 -17.031,-3.648 -8.168,0 -15.203,0.795 -20.66,4.61 C 3.536,2.834 2.547,1.787 1.77,0.02 Z"
       style="fill:#000000;fill-opacity:1;fill-rule:nonzero;stroke:none"
       transform="matrix(1.3333333,0,0,-1.3333333,-143.09281,-45.816429)"
       clip-path="url(#clipPath8)" />
    <path
       id="path9"
       d="m 0,0 0.085,17.985 2.233,0.016 C 5.431,6.063 10.829,0.737 22.476,0.737 c 5.237,0 9.294,1.144 12.169,3.427 2.875,2.282 4.313,4.84 4.313,7.669 0,2.857 -1.265,5.253 -3.792,7.188 -2.527,1.903 -4.394,3.2 -11.095,5.382 -5.97,1.957 -10.474,3.67 -13.515,5.137 -3.039,1.468 -5.205,3.257 -6.656,5.654 -1.01,1.59 -1.629,4.889 -1.629,7.545 0,4.054 1.839,7.429 5.521,10.129 3.68,2.697 8.341,4.047 13.98,4.047 3.151,0 6.118,-0.392 8.901,-1.174 2.782,-0.783 4.995,-1.958 7.928,-4.416 1.682,1.535 2.529,2.607 2.75,4.395 h 2.418 V 40.832 h -2.418 c -1.393,4.319 -3.104,7.867 -6.639,10.348 -3.536,2.482 -7.63,3.722 -12.28,3.722 -4.431,0 -7.683,-0.915 -9.751,-2.746 -2.071,-1.83 -3.104,-3.835 -3.104,-6.016 0,-2.626 1.297,-4.848 3.891,-6.665 2.556,-1.843 5.806,-3.872 12.515,-6.154 6.416,-2.172 11.081,-3.921 13.993,-5.248 2.911,-1.328 4.48,-3.068 6.239,-5.416 1.758,-2.349 2.636,-5.062 2.636,-8.136 0,-4.868 -2.124,-8.823 -6.373,-11.872 -4.249,-3.047 -9.925,-4.571 -17.031,-4.571 -8.168,0 -15.203,0.996 -20.66,5.776 C 3.536,3.551 2.547,2.239 1.77,0.024 Z"
       style="fill:#000000;fill-opacity:1;fill-rule:nonzero;stroke:none"
       transform="matrix(1.3333333,0,0,-1.3333333,-218.75947,-47.830699)"
       clip-path="url(#clipPath10)" />
    <path
       id="path11"
       d="m 0.22265625,-7.9564359 v -0.375 c 0.41308594,0.017578 0.80859375,0.023437 1.18359375,0.023437 0.375,0 0.7382813,-0.00586 1.0898438,-0.023437 0.3427734,0.7822265 0.65625,1.4707031 0.9375,2.0625 l 2.2265624,4.5703125 2.0039063,-4.1953125 c 0.5449219,-1.1396485 0.9082031,-1.9511719 1.0898438,-2.4375 0.4130859,0.017578 0.7646484,0.023437 1.0546875,0.023437 0.2578122,0 0.6796872,-0.00586 1.2656252,-0.023437 v 0.375 c -0.462891,0.00879 -0.744141,0.032227 -0.84375,0.070312 -0.102539,0.032227 -0.172852,0.076172 -0.210938,0.1289062 -0.046875,0.079102 -0.076172,0.2695313 -0.082031,0.5742188 -0.00879,0.079102 -0.020508,0.6328125 -0.035156,1.6640625 v 2.7070312 c 0,0.5332031 0.00586,1.0517578 0.023437,1.5585938 0.014648,0.36914059 0.041016,0.58593746 0.082032,0.65624996 0.04687,0.0703125 0.120117,0.12597657 0.222656,0.1640625 0.09961,0.0322266 0.380859,0.0527344 0.84375,0.0585938 V 5.953125e-4 C 10.283203,-0.03749062 9.7294922,-0.05799844 9.4101563,-0.05799844 c -0.2666016,0 -0.84375,0.02050782 -1.7343751,0.0585937525 V -0.37440469 c 0.459961,-0.005859 0.741211,-0.0263672 0.8437501,-0.0585938 0.099609,-0.0380859 0.1699218,-0.0849609 0.2109375,-0.140625 0.046875,-0.0761719 0.073242,-0.26953125 0.082031,-0.57421871 0.00586,-0.076172 0.017578,-0.6328125 0.035156,-1.6640626 V -7.112686 L 6.820312,-2.8822173 c -0.3134766,0.6650391 -0.5595703,1.1953126 -0.7382813,1.5937501 -0.1347656,0.29882809 -0.328125,0.76757809 -0.5859375,1.40624996 h -0.234375 c -0.046875,-0.15527343 -0.09375,-0.27539062 -0.140625,-0.36328125 l -0.398437,-0.85546871 -2.8007812,-5.8125 v 4.1015625 c 0,0.5332031 0.00586,1.0517578 0.023437,1.5585938 0.014648,0.36914059 0.041016,0.58593746 0.082031,0.65624996 0.046875,0.0703125 0.1201171,0.12597657 0.2226562,0.1640625 0.099609,0.0322266 0.3808594,0.0527344 0.84375,0.0585938 V 5.953125e-4 L 1.6875,-0.04627969 0.22265625,5.953125e-4 V -0.37440469 c 0.45996094,-0.005859 0.74121094,-0.0263672 0.84374995,-0.0585938 0.099609,-0.0380859 0.1699219,-0.0849609 0.2109375,-0.140625 0.046875,-0.0761719 0.076172,-0.26953125 0.09375,-0.57421871 0,-0.076172 0.00586,-0.6328125 0.023437,-1.6640626 v -2.7070311 c 0,-0.5302735 -0.00879,-1.0488282 -0.023437,-1.5585938 -0.00879,-0.375 -0.035156,-0.5917969 -0.082031,-0.65625 -0.046875,-0.070312 -0.1230469,-0.1201172 -0.2226563,-0.1523437 -0.09375,-0.038086 -0.37499995,-0.061523 -0.84375015,-0.070312 z M 11.750977,-2.6947172 c 0,-0.8730469 0.27539,-1.5878906 0.832031,-2.1445312 0.5625,-0.553711 1.277344,-0.8320313 2.144531,-0.8320313 0.820313,0 1.488281,0.2578125 2.003906,0.7734375 0.515625,0.515625 0.773438,1.1835938 0.773438,2.0039063 0,0.571289 -0.134766,1.0957031 -0.398438,1.5703125 -0.266601,0.46874996 -0.641601,0.84082028 -1.125,1.11328121 -0.486328,0.26367188 -1.016601,0.3984375 -1.59375,0.3984375 -0.454101,0 -0.84082,-0.0791016 -1.160156,-0.234375 -0.313476,-0.15527343 -0.568359,-0.34570312 -0.761719,-0.57421875 -0.196289,-0.234375 -0.345703,-0.47167966 -0.445312,-0.71484376 -0.181641,-0.421875 -0.269531,-0.8730469 -0.269531,-1.359375 z m 1.113281,-0.4335937 c 0,0.477539 0.07617,0.9667968 0.234375,1.4648437 0.164062,0.4921875 0.392578,0.85546876 0.691406,1.08984376 0.304688,0.22851563 0.635742,0.33984375 0.996094,0.33984375 0.451172,0 0.832031,-0.17871093 1.136719,-0.5390625 0.304687,-0.35742191 0.457031,-0.91406251 0.457031,-1.66406251 0,-0.6152344 -0.09375,-1.1513672 -0.28125,-1.6054687 -0.181641,-0.4511719 -0.410156,-0.7675782 -0.691406,-0.9492188 -0.28125,-0.1875 -0.591797,-0.28125 -0.925782,-0.28125 -0.486328,0 -0.875976,0.1757813 -1.171875,0.5273438 -0.298828,0.3457031 -0.445312,0.8847656 -0.445312,1.6171875 z M 18.067383,5.953125e-4 V -0.33924844 h 0.5625 c 0.07617,-0.005859 0.140625,-0.0234375 0.1875,-0.046875 0.04687,-0.0234375 0.08203,-0.0527344 0.105469,-0.09375 0.03809,-0.0761719 0.06445,-0.21679687 0.08203,-0.421875 0,-0.046875 0.01172,-0.60351566 0.03516,-1.67578126 v -0.703125 c 0,-0.3105469 -0.0088,-0.6474609 -0.02344,-1.0078125 -0.0088,-0.2255859 -0.0293,-0.3574219 -0.05859,-0.3984375 -0.02344,-0.046875 -0.06738,-0.082031 -0.128906,-0.1054687 -0.06445,-0.023437 -0.316407,-0.029297 -0.761719,-0.023437 v -0.3398438 c 0.788086,-0.1083984 1.365234,-0.2490234 1.734375,-0.421875 0.07617,-0.038086 0.128906,-0.058594 0.152344,-0.058594 0.0293,0 0.05273,0.011719 0.07031,0.035156 0.01465,0.017578 0.02344,0.043945 0.02344,0.082031 0,0.023437 -0.0059,0.055664 -0.01172,0.09375 -0.0088,0.140625 -0.02051,0.4394531 -0.03516,0.890625 l 1.089843,-0.9375 c 0.319336,-0.1171875 0.624024,-0.1757813 0.914063,-0.1757813 0.310547,0 0.609375,0.067383 0.890625,0.1992188 0.287109,0.1259765 0.503906,0.2871093 0.644531,0.4804687 0.140625,0.1962891 0.234375,0.4423828 0.28125,0.7382813 0.0293,0.1816406 0.04687,0.6738281 0.04687,1.4765625 v 1.03125 c 0,0.5097656 0.01172,0.85546871 0.03516,1.04296871 0.02344,0.1171875 0.05273,0.19921875 0.09375,0.24609375 0.03809,0.0410156 0.09961,0.0673828 0.1875,0.0820313 l 0.632813,0.0117188 V 5.953125e-4 C 24.433594,-0.02870156 24.114258,-0.04627969 23.856445,-0.04627969 c -0.219726,0 -0.583008,0.01757813 -1.089843,0.0468750025 0.05273,-0.9667968725 0.08203,-1.5761719125 0.08203,-1.8281250125 v -0.984375 c 0,-0.6152344 -0.02344,-1.0195312 -0.07031,-1.2070312 -0.06445,-0.2636719 -0.210937,-0.4746094 -0.445312,-0.6328125 -0.234375,-0.1640625 -0.521485,-0.2460938 -0.855469,-0.2460938 -0.290039,0 -0.556641,0.070312 -0.796875,0.2109375 -0.243164,0.140625 -0.418945,0.3017578 -0.527344,0.4804688 -0.102539,0.1816406 -0.152343,0.4863281 -0.152343,0.9140625 v 0.7148437 c 0.02344,1.0166016 0.03516,1.5644531 0.03516,1.64062501 0.0059,0.19628907 0.0293,0.33984375 0.07031,0.43359375 0.01465,0.0322266 0.03809,0.0644531 0.07031,0.09375 0.0293,0.0234375 0.08203,0.0439453 0.152344,0.0585938 0.02344,0 0.237304,0.005859 0.644531,0.0117188 V 5.953125e-4 C 20.496094,-0.02870156 20.0625,-0.04627969 19.672852,-0.04627969 c -0.328125,0 -0.864258,0.01757813 -1.605469,0.0468750025 z M 25.157227,-4.5931547 v -0.2460937 c 0.389648,-0.1464844 0.703125,-0.28125 0.9375,-0.3984375 0,-0.928711 -0.01172,-1.5234375 -0.03516,-1.78125 0.404297,-0.140625 0.732422,-0.2929688 0.984375,-0.4570313 l 0.140625,0.1171875 c -0.04102,0.328125 -0.08789,1.0429688 -0.140625,2.1445313 0.310547,0.00879 0.498047,0.011719 0.5625,0.011719 0.03809,0 0.240235,-0.00293 0.609375,-0.011719 0.202149,-0.00586 0.354492,-0.014648 0.457032,-0.023437 l 0.03516,0.035156 -0.117188,0.5507813 c -0.251953,-0.00586 -0.477539,-0.011719 -0.679687,-0.011719 -0.210938,0 -0.500977,0.00586 -0.867188,0.011719 l -0.03516,2.3789062 c -0.0088,0.5859375 -0.0059,0.9375 0.01172,1.0546875 0.02344,0.1113281 0.06152,0.2080078 0.117187,0.29296876 0.05273,0.0791016 0.123047,0.14648438 0.210938,0.19921875 0.08496,0.046875 0.234375,0.0878906 0.445312,0.1171875 0.164063,0 0.292969,-0.005859 0.386719,-0.0234375 0.09961,-0.0146484 0.228516,-0.0498047 0.386719,-0.10546875 l 0.07031,0.234375 c -0.1875,0.140625 -0.36914,0.29003907 -0.539062,0.4453125 -0.149414,0.06152344 -0.290039,0.09960938 -0.421875,0.1171875 -0.125977,0.01464844 -0.269531,0.0234375 -0.433594,0.0234375 -0.210937,0 -0.380859,-0.0234375 -0.503906,-0.0703125 -0.117188,-0.046875 -0.228516,-0.11132812 -0.328125,-0.19921875 -0.102539,-0.0849609 -0.1875,-0.19042968 -0.257813,-0.31640625 -0.06445,-0.13183593 -0.105468,-0.33398437 -0.128906,-0.60937496 0.0059,-0.2636719 0.01465,-0.5566407 0.02344,-0.8789063 0.0059,-0.061523 0.01172,-0.1289062 0.01172,-0.1992187 v -2.4375 h -0.246093 c -0.19629,0 -0.416016,0.011719 -0.65625,0.035156 z m 4.918945,0.5742188 -0.316406,-0.082031 c 0.0059,-0.084961 0.01172,-0.2050781 0.01172,-0.3632812 0,-0.1640625 -0.0059,-0.2958985 -0.01172,-0.3984375 0.498046,-0.319336 0.905273,-0.5390625 1.21875,-0.65625 0.240234,-0.076172 0.515625,-0.1171875 0.820312,-0.1171875 0.445313,0 0.820313,0.087891 1.125,0.2578125 0.304688,0.1640625 0.530274,0.4042968 0.679688,0.7148437 0.09961,0.2197266 0.152343,0.515625 0.152343,0.890625 l -0.02344,1.078125 v 1.74609376 c 0,0.1875 0.01465,0.32226563 0.04687,0.3984375 0.02344,0.0644531 0.05859,0.10546875 0.105469,0.12890625 0.03809,0.0234375 0.120117,0.0410156 0.246093,0.046875 l 0.386719,0.0351563 V 5.953125e-4 C 34.195312,-0.02870156 33.914062,-0.04627969 33.673828,-0.04627969 c -0.234375,0 -0.547851,0.01757813 -0.9375,0.0468750025 L 32.759766,-1.0306547 c -0.796875,0.60351564 -1.271485,0.94335939 -1.417969,1.01953126 -0.149414,0.07617188 -0.336914,0.1171875 -0.5625,0.1171875 -0.46875,0 -0.837891,-0.12304687 -1.101563,-0.375 -0.266601,-0.2578125 -0.398437,-0.59765625 -0.398437,-1.01953126 0,-0.2636719 0.04687,-0.5068359 0.140625,-0.7265625 0.09375,-0.2255859 0.202148,-0.4042969 0.328125,-0.5390625 0.131836,-0.1318359 0.263672,-0.2285156 0.398437,-0.2929687 0.225586,-0.099609 0.591797,-0.2109375 1.101563,-0.328125 0.506836,-0.1230469 1.010742,-0.2167969 1.511719,-0.28125 0.0059,-0.366211 -0.03516,-0.6503907 -0.128907,-0.8554688 -0.09375,-0.2109375 -0.254882,-0.3808594 -0.480468,-0.515625 -0.219727,-0.1318359 -0.489258,-0.1992187 -0.808594,-0.1992187 -0.234375,0 -0.439453,0.032227 -0.609375,0.09375 -0.172852,0.064453 -0.27832,0.1142578 -0.316406,0.1523437 l -0.105469,0.2109375 c -0.111328,0.234375 -0.1875,0.4189453 -0.234375,0.5507813 z m 2.683594,0.9257812 c -0.509766,0.087891 -0.94336,0.1845703 -1.300782,0.2929688 -0.360351,0.102539 -0.615234,0.2080078 -0.761718,0.3164062 -0.08789,0.070312 -0.164063,0.1728516 -0.234375,0.3046875 -0.102539,0.1962891 -0.152344,0.4101563 -0.152344,0.6445313 0,0.290039 0.07617,0.515625 0.234375,0.67968746 0.164062,0.1640625 0.389648,0.24609375 0.679687,0.24609375 0.257813,0 0.515625,-0.0732422 0.773438,-0.22265625 0.257812,-0.15527343 0.509765,-0.38085936 0.761719,-0.67968746 z M 34.962891,5.953125e-4 V -0.33924844 h 0.5625 c 0.07617,-0.005859 0.140625,-0.0234375 0.1875,-0.046875 0.04687,-0.0234375 0.08203,-0.0527344 0.105468,-0.09375 0.03809,-0.0761719 0.06445,-0.21679687 0.08203,-0.421875 0,-0.046875 0.01172,-0.60351566 0.03516,-1.67578126 v -0.703125 c 0,-0.3105469 -0.0088,-0.6474609 -0.02344,-1.0078125 -0.0088,-0.2255859 -0.0293,-0.3574219 -0.05859,-0.3984375 -0.02344,-0.046875 -0.06738,-0.082031 -0.128907,-0.1054687 -0.06445,-0.023437 -0.316406,-0.029297 -0.761718,-0.023437 v -0.3398438 c 0.788086,-0.1083984 1.365234,-0.2490234 1.734375,-0.421875 0.07617,-0.038086 0.128906,-0.058594 0.152343,-0.058594 0.0293,0 0.05273,0.011719 0.07031,0.035156 0.01465,0.017578 0.02344,0.043945 0.02344,0.082031 0,0.023437 -0.0059,0.055664 -0.01172,0.09375 -0.0088,0.140625 -0.02051,0.4394531 -0.03516,0.890625 l 1.089844,-0.9375 c 0.319336,-0.1171875 0.624024,-0.1757813 0.914063,-0.1757813 0.310546,0 0.609375,0.067383 0.890625,0.1992188 0.287109,0.1259765 0.503906,0.2871093 0.644531,0.4804687 0.140625,0.1962891 0.234375,0.4423828 0.28125,0.7382813 0.0293,0.1816406 0.04687,0.6738281 0.04687,1.4765625 v 1.03125 c 0,0.5097656 0.01172,0.85546871 0.03516,1.04296871 0.02344,0.1171875 0.05273,0.19921875 0.09375,0.24609375 0.03809,0.0410156 0.09961,0.0673828 0.1875,0.0820313 l 0.632813,0.0117188 V 5.953125e-4 C 41.329102,-0.02870156 41.009766,-0.04627969 40.751953,-0.04627969 c -0.219726,0 -0.583008,0.01757813 -1.089844,0.0468750025 0.05273,-0.9667968725 0.08203,-1.5761719125 0.08203,-1.8281250125 v -0.984375 c 0,-0.6152344 -0.02344,-1.0195312 -0.07031,-1.2070312 -0.06445,-0.2636719 -0.210937,-0.4746094 -0.445312,-0.6328125 -0.234375,-0.1640625 -0.521485,-0.2460938 -0.855469,-0.2460938 -0.290039,0 -0.556641,0.070312 -0.796875,0.2109375 -0.243164,0.140625 -0.418945,0.3017578 -0.527344,0.4804688 -0.102539,0.1816406 -0.152344,0.4863281 -0.152344,0.9140625 v 0.7148437 c 0.02344,1.0166016 0.03516,1.5644531 0.03516,1.64062501 0.0059,0.19628907 0.0293,0.33984375 0.07031,0.43359375 0.01465,0.0322266 0.03809,0.0644531 0.07031,0.09375 0.0293,0.0234375 0.08203,0.0439453 0.152343,0.0585938 0.02344,0 0.237305,0.005859 0.644532,0.0117188 V 5.953125e-4 C 37.391602,-0.02870156 36.958008,-0.04627969 36.568359,-0.04627969 c -0.328125,0 -0.864257,0.01757813 -1.605468,0.0468750025 z M 43.060547,-4.0189359 42.744141,-4.1009672 c 0.0059,-0.084961 0.01172,-0.2050781 0.01172,-0.3632812 0,-0.1640625 -0.0059,-0.2958985 -0.01172,-0.3984375 0.498046,-0.319336 0.905273,-0.5390625 1.21875,-0.65625 0.240234,-0.076172 0.515625,-0.1171875 0.820312,-0.1171875 0.445313,0 0.820313,0.087891 1.125,0.2578125 0.304688,0.1640625 0.530274,0.4042968 0.679688,0.7148437 0.09961,0.2197266 0.152343,0.515625 0.152343,0.890625 l -0.02344,1.078125 v 1.74609376 c 0,0.1875 0.01465,0.32226563 0.04687,0.3984375 0.02344,0.0644531 0.05859,0.10546875 0.105469,0.12890625 0.03809,0.0234375 0.120117,0.0410156 0.246093,0.046875 l 0.386719,0.0351563 V 5.953125e-4 C 47.179687,-0.02870156 46.898437,-0.04627969 46.658203,-0.04627969 c -0.234375,0 -0.547851,0.01757813 -0.9375,0.0468750025 L 45.744141,-1.0306547 c -0.796875,0.60351564 -1.271485,0.94335939 -1.417969,1.01953126 -0.149414,0.07617188 -0.336914,0.1171875 -0.5625,0.1171875 -0.46875,0 -0.837891,-0.12304687 -1.101563,-0.375 -0.266601,-0.2578125 -0.398437,-0.59765625 -0.398437,-1.01953126 0,-0.2636719 0.04687,-0.5068359 0.140625,-0.7265625 0.09375,-0.2255859 0.202148,-0.4042969 0.328125,-0.5390625 0.131836,-0.1318359 0.263672,-0.2285156 0.398437,-0.2929687 0.225586,-0.099609 0.591797,-0.2109375 1.101563,-0.328125 0.506836,-0.1230469 1.010742,-0.2167969 1.511719,-0.28125 0.0059,-0.366211 -0.03516,-0.6503907 -0.128907,-0.8554688 -0.09375,-0.2109375 -0.254882,-0.3808594 -0.480468,-0.515625 -0.219727,-0.1318359 -0.489258,-0.1992187 -0.808594,-0.1992187 -0.234375,0 -0.439453,0.032227 -0.609375,0.09375 -0.172852,0.064453 -0.27832,0.1142578 -0.316406,0.1523437 l -0.105469,0.2109375 c -0.111328,0.234375 -0.1875,0.4189453 -0.234375,0.5507813 z m 2.683594,0.9257812 c -0.509766,0.087891 -0.94336,0.1845703 -1.300782,0.2929688 -0.360351,0.102539 -0.615234,0.2080078 -0.761718,0.3164062 -0.08789,0.070312 -0.164063,0.1728516 -0.234375,0.3046875 -0.102539,0.1962891 -0.152344,0.4101563 -0.152344,0.6445313 0,0.290039 0.07617,0.515625 0.234375,0.67968746 0.164062,0.1640625 0.389648,0.24609375 0.679687,0.24609375 0.257813,0 0.515625,-0.0732422 0.773438,-0.22265625 0.257812,-0.15527343 0.509765,-0.38085936 0.761719,-0.67968746 z m 5.367187,2.80078126 c 0.06152,-0.375 0.09668,-0.97851566 0.105469,-1.81640626 h 0.398437 c 0.02344,0.5712891 0.05273,0.9082031 0.09375,1.0078125 0.04687,0.10253908 0.155274,0.21093751 0.328125,0.32812501 0.169922,0.1171875 0.401368,0.22265625 0.691407,0.31640625 0.287109,0.09375 0.568359,0.140625 0.84375,0.140625 0.389648,0 0.75,-0.0878906 1.078125,-0.26953125 0.333984,-0.1875 0.577148,-0.42480471 0.726562,-0.71484371 0.155274,-0.2958985 0.234375,-0.6123047 0.234375,-0.9492188 0,-0.2578125 -0.04102,-0.4804687 -0.117187,-0.6679687 -0.07031,-0.1875 -0.184571,-0.3398438 -0.339844,-0.4570313 -0.158203,-0.1171875 -0.351563,-0.1992187 -0.585938,-0.2460937 -0.140625,-0.023437 -0.430664,-0.061524 -0.867187,-0.1171875 -0.430664,-0.052734 -0.796875,-0.1113282 -1.101563,-0.1757813 -0.407226,-0.1230469 -0.708984,-0.2695312 -0.902343,-0.4335937 -0.1875,-0.1699219 -0.345704,-0.3925782 -0.46875,-0.6679688 -0.117188,-0.2724609 -0.175782,-0.5683594 -0.175782,-0.890625 0,-0.4599609 0.120118,-0.8935547 0.363282,-1.3007812 0.240234,-0.4042969 0.597656,-0.7207032 1.066406,-0.9492188 0.46875,-0.2255859 0.978515,-0.3398437 1.535156,-0.3398437 0.328125,0 0.685547,0.043945 1.078125,0.1289062 0.398438,0.087891 0.764649,0.2167969 1.101563,0.3867188 -0.05566,0.243164 -0.09375,0.4746093 -0.117188,0.6914062 -0.02344,0.2109375 -0.04102,0.5244141 -0.04687,0.9375 h -0.398437 c -0.01758,-0.6005859 -0.03516,-0.9287109 -0.05859,-0.984375 -0.09375,-0.140625 -0.228516,-0.2695312 -0.398438,-0.3867187 -0.398437,-0.225586 -0.817382,-0.3398438 -1.253906,-0.3398438 -0.571289,0 -1.025391,0.1757813 -1.359375,0.5273438 -0.336914,0.3457031 -0.503906,0.7910156 -0.503906,1.3359375 0,0.336914 0.05859,0.5947265 0.175781,0.7734375 0.123047,0.1816406 0.342774,0.3251953 0.65625,0.4335937 0.210938,0.079102 0.556641,0.1494141 1.042969,0.2109375 0.492187,0.064453 0.93164,0.1347656 1.324219,0.2109375 0.366211,0.1113281 0.635742,0.2402344 0.808593,0.3867188 0.178711,0.149414 0.322266,0.3486328 0.433594,0.5976562 0.117188,0.2431641 0.175781,0.5273438 0.175781,0.8554688 0,0.7734375 -0.325195,1.453125 -0.972656,2.03906246 -0.641601,0.58007813 -1.473633,0.8671875 -2.496094,0.8671875 -0.773437,0 -1.473632,-0.15820312 -2.097656,-0.46875 z m 6.243164,-4.30078126 v -0.2460937 c 0.389649,-0.1464844 0.703125,-0.28125 0.9375,-0.3984375 0,-0.928711 -0.01172,-1.5234375 -0.03516,-1.78125 0.404297,-0.140625 0.732422,-0.2929688 0.984375,-0.4570313 l 0.140625,0.1171875 c -0.04102,0.328125 -0.08789,1.0429688 -0.140625,2.1445313 0.310547,0.00879 0.498047,0.011719 0.5625,0.011719 0.03809,0 0.240234,-0.00293 0.609375,-0.011719 0.202148,-0.00586 0.354492,-0.014648 0.457031,-0.023437 l 0.03516,0.035156 -0.117187,0.5507813 c -0.251953,-0.00586 -0.477539,-0.011719 -0.679688,-0.011719 -0.210937,0 -0.500976,0.00586 -0.867187,0.011719 l -0.03516,2.3789062 c -0.0088,0.5859375 -0.0059,0.9375 0.01172,1.0546875 0.02344,0.1113281 0.06152,0.2080078 0.117188,0.29296876 0.05273,0.0791016 0.123047,0.14648438 0.210937,0.19921875 0.08496,0.046875 0.234375,0.0878906 0.445313,0.1171875 0.164062,0 0.292969,-0.005859 0.386719,-0.0234375 0.09961,-0.0146484 0.228515,-0.0498047 0.386718,-0.10546875 l 0.07031,0.234375 c -0.1875,0.140625 -0.369141,0.29003907 -0.539063,0.4453125 -0.149414,0.06152344 -0.290039,0.09960938 -0.421875,0.1171875 -0.125976,0.01464844 -0.269531,0.0234375 -0.433593,0.0234375 -0.210938,0 -0.38086,-0.0234375 -0.503907,-0.0703125 -0.117187,-0.046875 -0.228515,-0.11132812 -0.328125,-0.19921875 -0.102539,-0.0849609 -0.1875,-0.19042968 -0.257812,-0.31640625 -0.06445,-0.13183593 -0.105469,-0.33398437 -0.128906,-0.60937496 0.0059,-0.2636719 0.01465,-0.5566407 0.02344,-0.8789063 0.0059,-0.061523 0.01172,-0.1289062 0.01172,-0.1992187 v -2.4375 h -0.246094 c -0.196289,0 -0.416015,0.011719 -0.65625,0.035156 z m 4.918945,0.5742188 -0.316406,-0.082031 c 0.0059,-0.084961 0.01172,-0.2050781 0.01172,-0.3632812 0,-0.1640625 -0.0059,-0.2958985 -0.01172,-0.3984375 0.498047,-0.319336 0.905274,-0.5390625 1.21875,-0.65625 0.240235,-0.076172 0.515625,-0.1171875 0.820313,-0.1171875 0.445312,0 0.820312,0.087891 1.125,0.2578125 0.304687,0.1640625 0.530273,0.4042968 0.679687,0.7148437 0.09961,0.2197266 0.152344,0.515625 0.152344,0.890625 l -0.02344,1.078125 v 1.74609376 c 0,0.1875 0.01465,0.32226563 0.04687,0.3984375 0.02344,0.0644531 0.05859,0.10546875 0.105469,0.12890625 0.03809,0.0234375 0.120117,0.0410156 0.246094,0.046875 l 0.386719,0.0351563 V 5.953125e-4 C 66.392578,-0.02870156 66.111328,-0.04627969 65.871094,-0.04627969 c -0.234375,0 -0.547852,0.01757813 -0.9375,0.0468750025 L 64.957031,-1.0306547 c -0.796875,0.60351564 -1.271484,0.94335939 -1.417969,1.01953126 -0.149414,0.07617188 -0.336914,0.1171875 -0.5625,0.1171875 -0.46875,0 -0.83789,-0.12304687 -1.101562,-0.375 -0.266602,-0.2578125 -0.398438,-0.59765625 -0.398438,-1.01953126 0,-0.2636719 0.04687,-0.5068359 0.140625,-0.7265625 0.09375,-0.2255859 0.202149,-0.4042969 0.328125,-0.5390625 0.131836,-0.1318359 0.263672,-0.2285156 0.398438,-0.2929687 0.225586,-0.099609 0.591797,-0.2109375 1.101562,-0.328125 0.506836,-0.1230469 1.010743,-0.2167969 1.511719,-0.28125 0.0059,-0.366211 -0.03516,-0.6503907 -0.128906,-0.8554688 -0.09375,-0.2109375 -0.254883,-0.3808594 -0.480469,-0.515625 -0.219726,-0.1318359 -0.489258,-0.1992187 -0.808594,-0.1992187 -0.234375,0 -0.439453,0.032227 -0.609375,0.09375 -0.172851,0.064453 -0.27832,0.1142578 -0.316406,0.1523437 l -0.105469,0.2109375 c -0.111328,0.234375 -0.1875,0.4189453 -0.234375,0.5507813 z m 2.683594,0.9257812 c -0.509765,0.087891 -0.943359,0.1845703 -1.300781,0.2929688 -0.360352,0.102539 -0.615234,0.2080078 -0.761719,0.3164062 -0.08789,0.070312 -0.164062,0.1728516 -0.234375,0.3046875 -0.102539,0.1962891 -0.152344,0.4101563 -0.152344,0.6445313 0,0.290039 0.07617,0.515625 0.234375,0.67968746 0.164063,0.1640625 0.389649,0.24609375 0.679688,0.24609375 0.257812,0 0.515625,-0.0732422 0.773437,-0.22265625 0.257813,-0.15527343 0.509766,-0.38085936 0.761719,-0.67968746 z m 2.308594,-1.5 v -0.2460937 c 0.389648,-0.1464844 0.703125,-0.28125 0.9375,-0.3984375 0,-0.928711 -0.01172,-1.5234375 -0.03516,-1.78125 0.404297,-0.140625 0.732422,-0.2929688 0.984375,-0.4570313 l 0.140625,0.1171875 c -0.04102,0.328125 -0.08789,1.0429688 -0.140625,2.1445313 0.310547,0.00879 0.498047,0.011719 0.5625,0.011719 0.03809,0 0.240234,-0.00293 0.609375,-0.011719 0.202148,-0.00586 0.354492,-0.014648 0.457031,-0.023437 l 0.03516,0.035156 -0.117187,0.5507813 c -0.251953,-0.00586 -0.477539,-0.011719 -0.679688,-0.011719 -0.210937,0 -0.500976,0.00586 -0.867187,0.011719 l -0.03516,2.3789062 c -0.0088,0.5859375 -0.0059,0.9375 0.01172,1.0546875 0.02344,0.1113281 0.06152,0.2080078 0.117188,0.29296876 0.05273,0.0791016 0.123047,0.14648438 0.210937,0.19921875 0.08496,0.046875 0.234375,0.0878906 0.445313,0.1171875 0.164062,0 0.292968,-0.005859 0.386718,-0.0234375 0.09961,-0.0146484 0.228516,-0.0498047 0.386719,-0.10546875 l 0.07031,0.234375 c -0.1875,0.140625 -0.369141,0.29003907 -0.539063,0.4453125 -0.149414,0.06152344 -0.290039,0.09960938 -0.421875,0.1171875 -0.125976,0.01464844 -0.269531,0.0234375 -0.433594,0.0234375 -0.210937,0 -0.380859,-0.0234375 -0.503906,-0.0703125 -0.117187,-0.046875 -0.228515,-0.11132812 -0.328125,-0.19921875 -0.102539,-0.0849609 -0.1875,-0.19042968 -0.257812,-0.31640625 -0.06445,-0.13183593 -0.105469,-0.33398437 -0.128907,-0.60937496 0.0059,-0.2636719 0.01465,-0.5566407 0.02344,-0.8789063 0.0059,-0.061523 0.01172,-0.1289062 0.01172,-0.1992187 v -2.4375 h -0.246094 c -0.196289,0 -0.416016,0.011719 -0.65625,0.035156 z m 8.821289,3.67968751 -0.1875,0.421875 c -0.266602,0.17285157 -0.462891,0.28710938 -0.585937,0.33984375 -0.1875,0.07910157 -0.398438,0.14648438 -0.632813,0.19921875 -0.234375,0.06152344 -0.486328,0.09375 -0.75,0.09375 -0.515625,0 -0.984375,-0.10546875 -1.40625,-0.31640625 -0.416016,-0.21679687 -0.738281,-0.54199218 -0.972656,-0.97265626 -0.228516,-0.4277344 -0.339844,-0.9287109 -0.339844,-1.5 0,-0.4511719 0.05859,-0.8583984 0.175781,-1.21875 0.123047,-0.3574219 0.263672,-0.6240234 0.421875,-0.796875 0.117188,-0.1230469 0.292969,-0.2695312 0.527344,-0.4335937 0.240234,-0.1640625 0.480469,-0.2929688 0.714844,-0.3867188 0.304687,-0.1230469 0.635742,-0.1875 0.996094,-0.1875 0.436523,0 0.832031,0.1025391 1.183593,0.3046875 0.357422,0.1962891 0.621094,0.4658203 0.785157,0.8085938 0.164062,0.3457031 0.246093,0.7324218 0.246093,1.1601562 0,0.1113281 -0.0088,0.2431641 -0.02344,0.3984375 -0.28125,0.055664 -0.536133,0.09082 -0.761719,0.1054688 -0.421875,0.032226 -0.84375,0.046875 -1.265625,0.046875 h -1.875 c 0.0059,0.5625 0.09961,1.0166015 0.28125,1.359375 0.1875,0.3457031 0.445313,0.59765621 0.773438,0.76171871 0.328125,0.1640625 0.667968,0.24609375 1.019531,0.24609375 0.234375,0 0.46875,-0.0351563 0.703125,-0.10546875 0.240234,-0.0761719 0.533203,-0.21679687 0.878906,-0.42187501 z m -3.75,-2.39062501 c 0.108398,0.00879 0.316406,0.020508 0.621094,0.035156 0.577148,0.017578 0.975586,0.023437 1.195312,0.023437 0.521485,0 0.867188,-0.00586 1.03125,-0.023437 0,-0.09375 0,-0.1669922 0,-0.2226563 0,-0.6152344 -0.125976,-1.0693359 -0.375,-1.359375 -0.251953,-0.2871094 -0.583008,-0.4335937 -0.996093,-0.4335937 -0.445313,0 -0.805665,0.1611328 -1.078125,0.4804687 -0.266602,0.3134766 -0.398438,0.8144531 -0.398438,1.5000003 z m 7.494141,-4.6523437 v -0.375 c 0.638672,0.032227 1.233398,0.046875 1.78125,0.046875 0.553711,0 1.104492,-0.014648 1.652343,-0.046875 v 0.375 c -0.46289,0.00879 -0.74414,0.032227 -0.84375,0.070312 -0.102539,0.032227 -0.172851,0.076172 -0.210937,0.1289062 -0.04687,0.079102 -0.0791,0.2695313 -0.09375,0.5742188 0,0.079102 -0.0088,0.6328125 -0.02344,1.6640625 v 2.1679687 c 0,0.8378906 0.05274,1.3916016 0.164063,1.6640625 0.108398,0.2666016 0.28125,0.4863281 0.515625,0.65625 0.178711,0.13476564 0.421875,0.24316408 0.726562,0.32812501 0.304688,0.0791016 0.644532,0.1171875 1.019532,0.1171875 0.436523,0 0.823242,-0.0527344 1.160156,-0.1640625 0.342773,-0.10839843 0.597656,-0.23730468 0.761719,-0.38671871 0.169922,-0.1552735 0.298828,-0.328125 0.386718,-0.515625 0.08496,-0.1933594 0.143555,-0.459961 0.175782,-0.796875 0.03809,-0.3339844 0.05859,-0.7558594 0.05859,-1.265625 v -1.8046875 c 0,-0.5302735 -0.0088,-1.0488282 -0.02344,-1.5585938 -0.0088,-0.375 -0.03516,-0.5917969 -0.08203,-0.65625 -0.04102,-0.070312 -0.111328,-0.1201172 -0.210938,-0.1523437 -0.102539,-0.038086 -0.383789,-0.061523 -0.84375,-0.070312 v -0.375 c 0.638672,0.032227 1.107422,0.046875 1.40625,0.046875 0.272461,0 0.761719,-0.014648 1.464844,-0.046875 v 0.375 c -0.46875,0.00879 -0.755859,0.032227 -0.855469,0.070312 -0.09375,0.032227 -0.161133,0.076172 -0.199219,0.1289062 -0.04687,0.079102 -0.0791,0.2695313 -0.09375,0.5742188 0,0.079102 -0.0088,0.6328125 -0.02344,1.6640625 v 1.9570312 c 0,0.9697266 -0.06738,1.6464844 -0.199219,2.0273438 -0.134765,0.383789 -0.380859,0.72070309 -0.738281,1.00781246 -0.275391,0.21972657 -0.621094,0.39257813 -1.042969,0.515625 -0.421875,0.12304688 -0.890625,0.1875 -1.40625,0.1875 -0.603515,0 -1.125,-0.0703125 -1.570312,-0.2109375 -0.439453,-0.14648437 -0.773438,-0.33984375 -1.007813,-0.57421875 -0.228515,-0.234375 -0.383789,-0.47167971 -0.46875,-0.71484371 -0.111328,-0.319336 -0.164062,-0.8554688 -0.164062,-1.6054688 v -2.5898437 c 0,-0.5302735 -0.0088,-1.0488282 -0.02344,-1.5585938 -0.0088,-0.375 -0.03516,-0.5917969 -0.08203,-0.65625 -0.04687,-0.070312 -0.123047,-0.1201172 -0.222656,-0.1523437 -0.09375,-0.038086 -0.375,-0.061523 -0.84375,-0.070312 z M 89.15625,5.953125e-4 V -0.33924844 h 0.5625 c 0.07617,-0.005859 0.140625,-0.0234375 0.1875,-0.046875 0.04687,-0.0234375 0.08203,-0.0527344 0.105469,-0.09375 0.03809,-0.0761719 0.06445,-0.21679687 0.08203,-0.421875 0,-0.046875 0.01172,-0.60351566 0.03516,-1.67578126 v -0.703125 c 0,-0.3105469 -0.0088,-0.6474609 -0.02344,-1.0078125 -0.0088,-0.2255859 -0.0293,-0.3574219 -0.05859,-0.3984375 -0.02344,-0.046875 -0.06738,-0.082031 -0.128906,-0.1054687 -0.06445,-0.023437 -0.316407,-0.029297 -0.761719,-0.023437 v -0.3398438 c 0.788086,-0.1083984 1.365234,-0.2490234 1.734375,-0.421875 0.07617,-0.038086 0.128906,-0.058594 0.152344,-0.058594 0.0293,0 0.05273,0.011719 0.07031,0.035156 0.01465,0.017578 0.02344,0.043945 0.02344,0.082031 0,0.023437 -0.0059,0.055664 -0.01172,0.09375 -0.0088,0.140625 -0.02051,0.4394531 -0.03516,0.890625 l 1.089843,-0.9375 c 0.319336,-0.1171875 0.624024,-0.1757813 0.914063,-0.1757813 0.310547,0 0.609375,0.067383 0.890625,0.1992188 0.287109,0.1259765 0.503906,0.2871093 0.644531,0.4804687 0.140625,0.1962891 0.234375,0.4423828 0.28125,0.7382813 0.0293,0.1816406 0.04687,0.6738281 0.04687,1.4765625 v 1.03125 c 0,0.5097656 0.01172,0.85546871 0.03516,1.04296871 0.02344,0.1171875 0.05273,0.19921875 0.09375,0.24609375 0.03809,0.0410156 0.09961,0.0673828 0.1875,0.0820313 l 0.632813,0.0117188 V 5.953125e-4 C 95.522461,-0.02870156 95.203125,-0.04627969 94.945312,-0.04627969 c -0.219726,0 -0.583007,0.01757813 -1.089843,0.0468750025 C 93.908203,-0.96620156 93.9375,-1.5755766 93.9375,-1.8275297 v -0.984375 c 0,-0.6152344 -0.02344,-1.0195312 -0.07031,-1.2070312 -0.06445,-0.2636719 -0.210937,-0.4746094 -0.445312,-0.6328125 -0.234375,-0.1640625 -0.521484,-0.2460938 -0.855469,-0.2460938 -0.290039,0 -0.55664,0.070312 -0.796875,0.2109375 -0.243164,0.140625 -0.418945,0.3017578 -0.527344,0.4804688 -0.102539,0.1816406 -0.152343,0.4863281 -0.152343,0.9140625 v 0.7148437 c 0.02344,1.0166016 0.03516,1.5644531 0.03516,1.64062501 0.0059,0.19628907 0.0293,0.33984375 0.07031,0.43359375 0.01465,0.0322266 0.03809,0.0644531 0.07031,0.09375 0.0293,0.0234375 0.08203,0.0439453 0.152344,0.0585938 0.02344,0 0.237304,0.005859 0.644531,0.0117188 V 5.953125e-4 C 91.584961,-0.02870156 91.151367,-0.04627969 90.761719,-0.04627969 c -0.328125,0 -0.864258,0.01757813 -1.605469,0.0468750025 z M 97.675781,-8.2494047 c 0.178711,0 0.331055,0.067383 0.457031,0.1992188 0.131836,0.1259765 0.199219,0.2783203 0.199219,0.4570312 0,0.1816406 -0.06738,0.3369141 -0.199219,0.46875 -0.125976,0.1259766 -0.27832,0.1875 -0.457031,0.1875 -0.1875,0 -0.348633,-0.061523 -0.480469,-0.1875 -0.125976,-0.1318359 -0.1875,-0.2871094 -0.1875,-0.46875 0,-0.1787109 0.06152,-0.3310547 0.1875,-0.4570312 0.131836,-0.131836 0.292969,-0.1992188 0.480469,-0.1992188 z m -1.429687,3.421875 v -0.328125 c 0.755859,-0.084961 1.394531,-0.2490234 1.910156,-0.4921875 l 0.128906,0.09375 c -0.03223,0.8291016 -0.04687,1.4648438 -0.04687,1.9101563 v 1.0664062 c 0.01465,1.0166016 0.02637,1.5644531 0.03516,1.64062501 0,0.19628907 0.01758,0.33984375 0.05859,0.43359375 0.02344,0.0322266 0.04981,0.0644531 0.08203,0.09375 0.0293,0.0234375 0.07617,0.0439453 0.140625,0.0585938 0.02344,0 0.237305,0.005859 0.644532,0.0117188 V 5.953125e-4 C 98.604492,-0.02870156 98.132812,-0.04627969 97.78125,-0.04627969 c -0.313477,0 -0.826172,0.01757813 -1.535156,0.0468750025 V -0.33924844 h 0.550781 c 0.08496,-0.005859 0.146484,-0.0234375 0.1875,-0.046875 0.04687,-0.0234375 0.08203,-0.0527344 0.105469,-0.09375 0.04687,-0.0761719 0.07324,-0.21679687 0.08203,-0.421875 0,-0.046875 0.01172,-0.60351566 0.03516,-1.67578126 v -1.03125 c 0,-0.5859375 -0.02051,-0.9316406 -0.05859,-1.0429687 -0.02344,-0.052734 -0.06738,-0.09668 -0.128906,-0.1289063 -0.05566,-0.029297 -0.313476,-0.046875 -0.773437,-0.046875 z m 6.210936,4.88671876 c -0.14941,-0.3984375 -0.25488,-0.66796875 -0.3164,-0.80859375 l -0.48047,-1.11328121 -1.19532,-2.8007813 c -0.0791,-0.1699219 -0.14648,-0.2841797 -0.19921,-0.3398437 -0.0557,-0.061523 -0.11719,-0.099609 -0.1875,-0.1171875 -0.0557,-0.014648 -0.199224,-0.026367 -0.433599,-0.035156 v -0.3515625 c 0.647459,0.023437 1.119139,0.035156 1.417969,0.035156 0.32813,0 0.77637,-0.011719 1.34766,-0.035156 v 0.3515625 c -0.42188,0.00879 -0.67383,0.035156 -0.75,0.082031 -0.0703,0.041016 -0.10547,0.099609 -0.10547,0.1757812 0,0.1171875 0.0762,0.3691406 0.23437,0.75 l 0.71485,1.78125 0.17578,0.3984375 c 0.1875,0.46875 0.3164,0.7822266 0.38672,0.9375 l 0.58593,-1.3359375 c 0.0381,-0.076172 0.2168,-0.515625 0.53907,-1.3125 0.1875,-0.46875 0.31054,-0.8232422 0.375,-1.0664062 0.0146,-0.070312 0.0234,-0.1289063 0.0234,-0.1757813 0,-0.070312 -0.0293,-0.1171875 -0.082,-0.140625 -0.0937,-0.052734 -0.3457,-0.084961 -0.75,-0.09375 v -0.3515625 c 0.58594,0.023437 0.96094,0.035156 1.125,0.035156 0.13184,0 0.50391,-0.011719 1.11328,-0.035156 v 0.3515625 c -0.24316,0.00879 -0.40429,0.035156 -0.48046,0.082031 -0.0791,0.046875 -0.15821,0.140625 -0.23438,0.28125 -0.0557,0.09375 -0.2666,0.515625 -0.63281,1.265625 l -0.5625,1.1953125 c -0.10254,0.2197265 -0.44239,1.0166015 -1.01953,2.39062496 z m 8.9707,-0.97265625 -0.1875,0.421875 c -0.2666,0.17285157 -0.46289,0.28710938 -0.58593,0.33984375 -0.1875,0.07910157 -0.39844,0.14648438 -0.63282,0.19921875 -0.23437,0.06152344 -0.48632,0.09375 -0.75,0.09375 -0.51562,0 -0.98437,-0.10546875 -1.40625,-0.31640625 -0.41601,-0.21679687 -0.73828,-0.54199218 -0.97265,-0.97265626 -0.22852,-0.4277344 -0.33985,-0.9287109 -0.33985,-1.5 0,-0.4511719 0.0586,-0.8583984 0.17579,-1.21875 0.12304,-0.3574219 0.26367,-0.6240234 0.42187,-0.796875 0.11719,-0.1230469 0.29297,-0.2695312 0.52734,-0.4335937 0.24024,-0.1640625 0.48047,-0.2929688 0.71485,-0.3867188 0.30469,-0.1230469 0.63574,-0.1875 0.99609,-0.1875 0.43653,0 0.83203,0.1025391 1.1836,0.3046875 0.35742,0.1962891 0.62109,0.4658203 0.78515,0.8085938 0.16406,0.3457031 0.2461,0.7324218 0.2461,1.1601562 0,0.1113281 -0.009,0.2431641 -0.0234,0.3984375 -0.28125,0.055664 -0.53613,0.09082 -0.76172,0.1054688 -0.42188,0.032226 -0.84375,0.046875 -1.26563,0.046875 h -1.875 c 0.006,0.5625 0.0996,1.0166015 0.28125,1.359375 0.1875,0.3457031 0.44532,0.59765621 0.77344,0.76171871 0.32813,0.1640625 0.66797,0.24609375 1.01953,0.24609375 0.23438,0 0.46875,-0.0351563 0.70313,-0.10546875 0.24023,-0.0761719 0.5332,-0.21679687 0.8789,-0.42187501 z m -3.75,-2.39062501 c 0.1084,0.00879 0.31641,0.020508 0.6211,0.035156 0.57715,0.017578 0.97558,0.023437 1.19531,0.023437 0.52149,0 0.86719,-0.00586 1.03125,-0.023437 0,-0.09375 0,-0.1669922 0,-0.2226563 0,-0.6152344 -0.12598,-1.0693359 -0.375,-1.359375 -0.25195,-0.2871094 -0.58301,-0.4335937 -0.99609,-0.4335937 -0.44532,0 -0.80567,0.1611328 -1.07813,0.4804687 -0.2666,0.3134766 -0.39844,0.8144531 -0.39844,1.5000003 z m 4.59961,3.3046875125 V -0.33924844 c 0.43653,-0.005859 0.67383,-0.0146484 0.71485,-0.0234375 0.0615,-0.005859 0.1084,-0.0234375 0.14062,-0.046875 0.0381,-0.0292969 0.0645,-0.0703125 0.082,-0.1171875 0.0381,-0.0849609 0.0615,-0.22558593 0.0703,-0.421875 0.0234,-1.03710936 0.0352,-1.58203126 0.0352,-1.62890626 v -0.703125 c 0,-0.3105469 -0.006,-0.6474609 -0.0117,-1.0078125 -0.009,-0.2255859 -0.0293,-0.3574219 -0.0586,-0.3984375 -0.0234,-0.046875 -0.0674,-0.082031 -0.12891,-0.1054687 -0.0644,-0.023437 -0.3164,-0.029297 -0.76171,-0.023437 v -0.3398438 c 0.78808,-0.1083984 1.3623,-0.2490234 1.72265,-0.421875 0.0762,-0.038086 0.13184,-0.058594 0.16406,-0.058594 0.0234,0 0.041,0.011719 0.0586,0.035156 0.0147,0.017578 0.0234,0.043945 0.0234,0.082031 0,0.023437 0,0.055664 0,0.09375 -0.0234,0.234375 -0.0352,0.6035156 -0.0352,1.1015625 0.16992,-0.2021485 0.33105,-0.4013672 0.48047,-0.5976563 0.14648,-0.2021484 0.25781,-0.3310547 0.32812,-0.3867187 0.11719,-0.099609 0.24903,-0.1816407 0.39844,-0.2460938 0.15527,-0.061523 0.31641,-0.09375 0.48047,-0.09375 0.16406,0 0.32226,0.035156 0.48047,0.1054688 l 0.0352,0.082031 c -0.0557,0.5244141 -0.0879,0.9814453 -0.0937,1.3710938 h -0.26953 c -0.0879,-0.1875 -0.19336,-0.3222657 -0.3164,-0.4101563 -0.11719,-0.084961 -0.26661,-0.1289062 -0.44532,-0.1289062 -0.29882,0 -0.55078,0.1259765 -0.76171,0.375 -0.21094,0.2519531 -0.31641,0.6210937 -0.31641,1.1132812 v 0.609375 c 0,0.2578125 0.006,0.7265625 0.0234,1.40625 0.006,0.24316408 0.0176,0.39843751 0.0352,0.46875001 0.0146,0.0644531 0.0352,0.11132813 0.0586,0.140625 0.0234,0.0322266 0.0644,0.0556641 0.1289,0.0703125 0.11719,0.0410156 0.4336,0.0761719 0.94922,0.10546875 V 5.953125e-4 C 114.7998,-0.02870156 114.21387,-0.04627969 113.73047,-0.04627969 c -0.50098,0 -0.98438,0.01757813 -1.45313,0.0468750025 z M 117.28711,-1.7689359 h 0.35156 c 0,0.2285156 0.006,0.4072265 0.0234,0.5390625 0.0234,0.1347656 0.0586,0.26367184 0.10547,0.38671871 0.0469,0.12597657 0.11719,0.234375 0.21094,0.328125 0.0996,0.0878906 0.21093,0.15234375 0.32812,0.19921875 0.11719,0.046875 0.23438,0.0791016 0.35156,0.09375 0.11719,0.0175781 0.2959,0.0234375 0.53907,0.0234375 0.39843,0 0.72656,-0.10546875 0.98437,-0.31640625 0.25781,-0.2109375 0.38672,-0.49804691 0.38672,-0.86718751 0,-0.1640625 -0.0439,-0.3076172 -0.12891,-0.4335937 -0.0791,-0.1230469 -0.19336,-0.2226563 -0.33984,-0.2929688 -0.14941,-0.070312 -0.47461,-0.1582031 -0.97266,-0.2695312 -0.49218,-0.1171875 -0.81445,-0.1992188 -0.96093,-0.2460938 -0.21973,-0.084961 -0.39551,-0.1875 -0.52735,-0.3046875 -0.12597,-0.1171875 -0.22851,-0.2636719 -0.30469,-0.4453125 -0.0703,-0.1787109 -0.10546,-0.375 -0.10546,-0.5859375 0,-0.3046875 0.0762,-0.5859375 0.23437,-0.84375 0.16406,-0.2636719 0.41602,-0.4746094 0.76172,-0.6328125 0.35156,-0.1640625 0.73242,-0.2460937 1.14844,-0.2460937 0.24023,0 0.52148,0.035156 0.84375,0.1054687 0.32812,0.064453 0.59179,0.1464844 0.79687,0.2460938 -0.0234,0.4394531 -0.0439,0.8789062 -0.0586,1.3242187 h -0.32813 c -0.0234,-0.28125 -0.0469,-0.4628906 -0.0703,-0.5507812 -0.0234,-0.09375 -0.0586,-0.1757813 -0.10547,-0.2460938 -0.041,-0.070312 -0.11426,-0.1435547 -0.22265,-0.2226562 -0.10254,-0.084961 -0.24024,-0.1582032 -0.41016,-0.2226563 -0.16406,-0.061523 -0.36914,-0.09375 -0.60938,-0.09375 -0.3457,0 -0.62109,0.1025391 -0.83203,0.3046875 -0.20507,0.2050781 -0.30468,0.4423828 -0.30468,0.7148438 0,0.1582031 0.0264,0.290039 0.082,0.3984375 0.0615,0.1113281 0.14355,0.1992187 0.24609,0.2695312 0.0996,0.064453 0.24609,0.1230469 0.43359,0.1757813 l 0.97266,0.2460937 c 0.49219,0.1259766 0.82617,0.234375 1.00781,0.328125 0.1875,0.087891 0.33399,0.2226563 0.44532,0.4101563 0.11718,0.1875 0.17578,0.4160156 0.17578,0.6796875 0,0.5332031 -0.21973,0.99609371 -0.65625,1.39453121 -0.43067,0.39257813 -1.01367,0.5859375 -1.7461,0.5859375 -0.33691,0 -0.78222,-0.0527344 -1.33593,-0.15234375 -0.31348,-0.06152343 -0.48047,-0.10546875 -0.50391,-0.12890625 -0.0176,-0.0146484 -0.0234,-0.0351563 -0.0234,-0.0585938 0,-0.0292969 0.003,-0.0644531 0.0117,-0.10546875 0.0381,-0.1640625 0.0615,-0.32226562 0.0703,-0.48046875 0.0147,-0.1640625 0.0264,-0.49804681 0.0352,-1.00781241 z m 6.2373,-6.4804688 c 0.17872,0 0.33106,0.067383 0.45704,0.1992188 0.13183,0.1259765 0.19921,0.2783203 0.19921,0.4570312 0,0.1816406 -0.0674,0.3369141 -0.19921,0.46875 -0.12598,0.1259766 -0.27832,0.1875 -0.45704,0.1875 -0.1875,0 -0.34863,-0.061523 -0.48046,-0.1875 -0.12598,-0.1318359 -0.1875,-0.2871094 -0.1875,-0.46875 0,-0.1787109 0.0615,-0.3310547 0.1875,-0.4570312 0.13183,-0.131836 0.29296,-0.1992188 0.48046,-0.1992188 z m -1.42968,3.421875 v -0.328125 c 0.75586,-0.084961 1.39453,-0.2490234 1.91015,-0.4921875 l 0.12891,0.09375 c -0.0322,0.8291016 -0.0469,1.4648438 -0.0469,1.9101563 v 1.0664062 c 0.0147,1.0166016 0.0264,1.5644531 0.0352,1.64062501 0,0.19628907 0.0176,0.33984375 0.0586,0.43359375 0.0234,0.0322266 0.0498,0.0644531 0.082,0.09375 0.0293,0.0234375 0.0762,0.0439453 0.14062,0.0585938 0.0234,0 0.23731,0.005859 0.64453,0.0117188 V 5.953125e-4 c -0.59472,-0.0292968725 -1.0664,-0.0468750025 -1.41797,-0.0468750025 -0.31347,0 -0.82617,0.01757813 -1.53515,0.0468750025 V -0.33924844 h 0.55078 c 0.085,-0.005859 0.14648,-0.0234375 0.1875,-0.046875 0.0469,-0.0234375 0.082,-0.0527344 0.10547,-0.09375 0.0469,-0.0761719 0.0732,-0.21679687 0.082,-0.421875 0,-0.046875 0.0117,-0.60351566 0.0352,-1.67578126 v -1.03125 c 0,-0.5859375 -0.0205,-0.9316406 -0.0586,-1.0429687 -0.0234,-0.052734 -0.0674,-0.09668 -0.12891,-0.1289063 -0.0557,-0.029297 -0.31347,-0.046875 -0.77343,-0.046875 z m 3.49218,0.234375 v -0.2460937 c 0.38965,-0.1464844 0.70313,-0.28125 0.9375,-0.3984375 0,-0.928711 -0.0117,-1.5234375 -0.0352,-1.78125 0.40429,-0.140625 0.73242,-0.2929688 0.98437,-0.4570313 l 0.14063,0.1171875 c -0.041,0.328125 -0.0879,1.0429688 -0.14063,2.1445313 0.31055,0.00879 0.49805,0.011719 0.5625,0.011719 0.0381,0 0.24024,-0.00293 0.60938,-0.011719 0.20215,-0.00586 0.35449,-0.014648 0.45703,-0.023437 l 0.0352,0.035156 -0.11719,0.5507813 c -0.25196,-0.00586 -0.47754,-0.011719 -0.67969,-0.011719 -0.21094,0 -0.50098,0.00586 -0.86719,0.011719 l -0.0352,2.3789062 c -0.009,0.5859375 -0.006,0.9375 0.0117,1.0546875 0.0234,0.1113281 0.0615,0.2080078 0.11718,0.29296876 0.0527,0.0791016 0.12305,0.14648438 0.21094,0.19921875 0.085,0.046875 0.23438,0.0878906 0.44531,0.1171875 0.16407,0 0.29297,-0.005859 0.38672,-0.0234375 0.0996,-0.0146484 0.22852,-0.0498047 0.38672,-0.10546875 l 0.0703,0.234375 c -0.1875,0.140625 -0.36914,0.29003907 -0.53906,0.4453125 -0.14941,0.06152344 -0.29004,0.09960938 -0.42187,0.1171875 -0.12598,0.01464844 -0.26954,0.0234375 -0.4336,0.0234375 -0.21094,0 -0.38086,-0.0234375 -0.5039,-0.0703125 -0.11719,-0.046875 -0.22852,-0.11132812 -0.32813,-0.19921875 -0.10254,-0.0849609 -0.1875,-0.19042968 -0.25781,-0.31640625 -0.0645,-0.13183593 -0.10547,-0.33398437 -0.12891,-0.60937496 0.006,-0.2636719 0.0147,-0.5566407 0.0234,-0.8789063 0.006,-0.061523 0.0117,-0.1289062 0.0117,-0.1992187 v -2.4375 h -0.2461 c -0.19628,0 -0.41601,0.011719 -0.65625,0.035156 z m 3.91114,7.734375 0.29297,-0.9023437 h 0.14062 c 0.0762,0.061523 0.14063,0.1083984 0.1875,0.140625 0.0527,0.038086 0.11133,0.064453 0.17578,0.082031 0.0615,0.023437 0.15235,0.035156 0.26953,0.035156 0.11719,0 0.23438,-0.029297 0.35157,-0.082031 0.11718,-0.046875 0.22265,-0.1289062 0.3164,-0.2460937 0.0996,-0.1113282 0.22266,-0.3046875 0.36328,-0.5859375 0.20215,-0.4160157 0.38672,-0.84082035 0.55078,-1.27734379 -0.12597,-0.3515625 -0.27539,-0.74414062 -0.44531,-1.18359375 l -0.9375,-2.30859376 c -0.27539,-0.6855469 -0.50097,-1.2128906 -0.67969,-1.5820312 -0.0703,-0.1464844 -0.14648,-0.2460938 -0.22265,-0.2929688 -0.0791,-0.046875 -0.25781,-0.084961 -0.53906,-0.1171875 v -0.328125 c 0.48339,0.023437 0.96386,0.035156 1.4414,0.035156 0.45996,0 0.90235,-0.011719 1.32422,-0.035156 v 0.328125 c -0.39844,0.023437 -0.62988,0.046875 -0.69141,0.070312 -0.10253,0.041016 -0.15234,0.1113281 -0.15234,0.2109375 0,0.064453 0.0352,0.1933594 0.10547,0.3867188 0.14648,0.4863281 0.29297,0.8964843 0.43359,1.2304687 l 0.36328,0.9140625 c 0.22559,0.5478516 0.41309,0.9931641 0.5625,1.3359375 l 0.31641,-0.6914062 c 0.11719,-0.272461 0.32813,-0.7910157 0.63281,-1.5585938 0.30469,-0.7646484 0.4834,-1.2363281 0.53907,-1.4179687 0.0146,-0.061523 0.0234,-0.1171875 0.0234,-0.1640625 0,-0.076172 -0.0322,-0.1347657 -0.0937,-0.1757813 -0.0644,-0.038086 -0.29883,-0.076172 -0.70312,-0.1171875 v -0.3515625 c 0.45117,0.023437 0.84961,0.035156 1.19531,0.035156 0.35156,0 0.69727,-0.011719 1.04297,-0.035156 l -0.0586,0.3515625 c -0.19629,0.00879 -0.34864,0.052734 -0.45704,0.1289063 -0.11132,0.079102 -0.27832,0.3398437 -0.5039,0.7851562 -0.21973,0.4453125 -0.62696,1.3242188 -1.21875,2.6367188 l -1.35938,3.1757812 c -0.21972,0.506836 -0.41015,0.8701172 -0.57422,1.0898438 -0.1582,0.2167968 -0.34863,0.3808593 -0.57421,0.4921875 -0.21973,0.1171875 -0.4629,0.1757812 -0.72657,0.1757812 -0.12597,0 -0.24316,-0.017578 -0.35156,-0.046875 -0.10254,-0.023437 -0.2168,-0.070312 -0.33984,-0.140625 z m 0,0"
       style="fill:#000000;fill-opacity:1;fill-rule:nonzero;stroke:none"
       aria-label="Montana State University"
       transform="matrix(1.3333333,0,0,1.3333333,-157.12534,-111.0019)"
       clip-path="url(#clipPath12)" />
  </g>
</svg>
